<svg id="svg" version="1.1" xmlns="http://www.w3.org/2000/svg" xmlns:xlink="http://www.w3.org/1999/xlink" width="400" height="402.0100502512563" viewBox="0, 0, 400,402.0100502512563"><g id="svgg"><path id="path0" d="M0.010 201.100 L 0.021 399.000 1.607 399.731 C 4.016 400.842,394.608 400.880,396.303 399.770 C 397.303 399.114,397.317 399.061,396.565 398.783 C 396.128 398.621,395.237 397.704,394.585 396.745 C 393.933 395.787,388.090 389.648,381.600 383.105 C 375.110 376.561,369.511 370.891,369.157 370.504 C 368.804 370.117,367.454 368.824,366.157 367.630 C 361.417 363.267,359.338 361.210,356.400 357.975 C 354.750 356.159,352.770 354.126,352.000 353.458 C 351.230 352.791,347.688 349.264,344.128 345.622 C 340.569 341.980,337.419 338.770,337.128 338.490 C 331.354 332.912,305.600 307.206,305.600 307.020 C 305.600 306.879,303.949 305.196,301.930 303.281 C 299.912 301.367,296.897 298.463,295.230 296.830 C 293.564 295.196,291.358 293.068,290.329 292.102 L 288.457 290.344 287.329 291.043 C 286.708 291.427,285.480 292.410,284.600 293.228 C 281.890 295.745,275.882 300.400,275.344 300.400 C 275.064 300.400,274.331 301.030,273.717 301.800 C 273.103 302.570,272.311 303.200,271.958 303.200 C 271.606 303.200,270.802 303.677,270.172 304.261 C 268.611 305.708,260.420 311.018,259.192 311.380 C 258.646 311.540,256.663 312.546,254.784 313.615 C 252.905 314.684,250.500 315.753,249.439 315.991 C 248.378 316.229,246.765 316.932,245.855 317.553 C 244.240 318.655,243.431 318.957,236.400 321.075 C 234.530 321.639,232.000 322.434,230.777 322.843 C 229.555 323.252,227.125 323.778,225.377 324.012 C 223.630 324.246,221.310 324.725,220.221 325.077 C 218.314 325.694,213.648 326.348,204.800 327.239 C 199.990 327.723,186.887 327.459,184.800 326.836 C 184.030 326.606,181.510 326.248,179.200 326.041 C 176.890 325.833,174.225 325.383,173.277 325.041 C 172.329 324.699,170.093 324.236,168.308 324.012 C 165.045 323.603,159.235 322.052,157.000 320.994 C 156.340 320.681,154.900 320.213,153.800 319.952 C 152.700 319.692,150.450 318.808,148.800 317.987 C 147.150 317.167,144.731 316.274,143.425 316.004 C 141.046 315.511,138.238 313.998,137.856 313.003 C 137.744 312.711,136.632 312.175,135.385 311.813 C 134.114 311.443,132.257 310.473,131.156 309.603 C 130.077 308.750,128.825 307.935,128.373 307.792 C 126.825 307.300,117.446 300.593,114.600 297.942 C 113.940 297.327,112.320 295.977,111.000 294.941 C 109.680 293.905,107.700 292.073,106.600 290.869 C 105.500 289.665,102.845 286.890,100.700 284.703 C 98.555 282.516,96.800 280.555,96.800 280.346 C 96.800 280.137,96.017 279.118,95.059 278.083 C 93.097 275.961,90.400 272.135,90.400 271.474 C 90.400 271.234,89.815 270.437,89.100 269.703 C 86.775 267.316,79.303 253.648,78.001 249.400 C 77.732 248.520,77.296 247.440,77.034 247.000 C 75.923 245.135,74.037 240.058,73.805 238.309 C 73.667 237.269,73.384 236.314,73.177 236.186 C 72.970 236.058,72.800 235.678,72.800 235.343 C 72.800 235.008,72.273 233.416,71.628 231.807 C 70.908 230.009,70.359 227.746,70.203 225.940 C 70.064 224.323,69.695 222.280,69.383 221.400 C 69.071 220.520,68.744 218.270,68.656 216.400 C 68.552 214.191,68.199 212.259,67.648 210.885 C 66.430 207.848,66.385 192.853,67.573 186.200 C 68.005 183.780,68.529 180.540,68.738 179.000 C 68.946 177.460,69.314 175.480,69.554 174.600 C 69.794 173.720,70.185 171.309,70.424 169.243 C 70.662 167.176,71.112 165.096,71.424 164.619 C 71.736 164.143,72.173 162.799,72.394 161.633 C 72.927 158.820,76.353 149.243,77.242 148.081 C 77.629 147.576,78.067 146.586,78.217 145.881 C 78.367 145.177,78.702 144.330,78.962 144.000 C 79.222 143.670,79.670 142.705,79.959 141.857 C 80.421 140.498,82.682 136.155,85.955 130.344 C 86.530 129.323,87.404 127.757,87.897 126.865 C 88.391 125.973,89.038 125.098,89.337 124.921 C 89.635 124.745,90.131 124.117,90.440 123.528 C 91.088 122.286,94.330 117.850,95.625 116.432 C 96.111 115.900,97.134 114.640,97.898 113.632 C 98.663 112.624,99.904 111.287,100.658 110.660 C 101.411 110.032,102.451 108.682,102.968 107.660 L 103.909 105.800 101.853 103.400 C 100.722 102.080,98.807 100.067,97.598 98.926 C 95.167 96.632,84.037 85.554,78.925 80.340 C 77.124 78.503,73.974 75.357,71.925 73.349 C 69.876 71.340,67.030 68.493,65.600 67.021 C 64.170 65.549,60.563 61.972,57.585 59.072 C 54.607 56.172,50.987 52.540,49.541 51.000 C 48.095 49.460,44.411 45.770,41.356 42.800 C 38.300 39.829,34.682 36.229,33.316 34.800 C 31.950 33.370,27.516 28.870,23.463 24.800 C 19.409 20.730,15.832 17.130,15.514 16.800 C 15.025 16.292,11.722 13.301,9.928 11.740 C 9.638 11.488,7.912 9.733,6.092 7.840 C 4.273 5.948,2.630 4.400,2.441 4.400 C 2.252 4.400,1.874 4.130,1.600 3.800 C -0.074 1.783,-0.001 -7.373,0.010 201.100 " stroke="none" fill="#ec1e25" fill-rule="evenodd"></path><path id="path1" d="M2.400 0.463 C 2.400 0.943,3.734 2.367,9.741 8.302 C 11.689 10.226,13.920 12.472,14.699 13.293 C 15.478 14.114,20.343 18.974,25.511 24.093 C 30.679 29.212,35.648 34.185,36.554 35.144 C 37.459 36.104,38.905 37.544,39.767 38.344 C 40.629 39.145,42.879 41.401,44.767 43.358 C 46.655 45.315,52.610 51.292,58.000 56.639 C 63.390 61.986,67.980 66.561,68.200 66.805 C 68.420 67.049,72.920 71.558,78.200 76.825 C 89.229 87.828,93.925 92.543,96.221 94.921 C 97.112 95.845,98.463 97.141,99.223 97.802 C 99.983 98.464,101.220 99.770,101.971 100.705 C 103.194 102.225,106.199 104.400,107.078 104.400 C 107.263 104.400,108.761 103.091,110.407 101.490 C 112.053 99.890,114.704 97.726,116.298 96.683 C 117.892 95.639,120.142 93.884,121.297 92.782 C 122.451 91.681,124.927 89.961,126.798 88.960 C 128.669 87.960,131.120 86.562,132.245 85.853 C 133.369 85.144,135.079 84.313,136.045 84.006 C 137.010 83.699,138.495 82.911,139.344 82.256 C 140.192 81.600,141.886 80.734,143.106 80.332 C 144.326 79.929,145.918 79.147,146.644 78.594 C 148.742 76.993,150.262 76.859,150.882 78.221 C 151.312 79.164,151.298 79.367,150.795 79.532 C 150.468 79.640,149.750 80.259,149.200 80.908 C 148.253 82.026,141.866 88.740,139.502 91.103 C 138.898 91.706,137.098 93.521,135.502 95.135 C 133.906 96.749,131.235 99.449,129.568 101.135 C 127.900 102.821,126.100 104.577,125.568 105.037 C 125.035 105.497,123.430 107.114,122.000 108.629 C 120.570 110.145,118.725 111.884,117.900 112.495 C 115.464 114.298,115.963 117.079,118.853 117.800 C 120.496 118.210,123.813 116.618,124.433 115.120 C 124.731 114.401,125.719 113.427,126.867 112.721 C 127.930 112.067,128.800 111.381,128.800 111.198 C 128.800 111.015,129.460 110.265,130.267 109.532 C 131.074 108.800,132.919 106.957,134.367 105.437 C 139.487 100.064,141.405 98.050,141.800 97.630 C 142.020 97.396,143.370 96.129,144.800 94.815 C 147.860 92.002,148.304 91.559,151.200 88.431 C 152.410 87.124,153.645 85.817,153.943 85.527 C 154.242 85.237,157.336 82.178,160.817 78.728 C 166.906 72.696,167.221 72.448,169.074 72.223 C 170.133 72.094,173.291 71.353,176.091 70.576 C 184.475 68.251,188.000 68.196,188.000 70.389 C 188.000 71.115,187.659 71.812,187.079 72.271 C 186.572 72.672,185.824 73.567,185.416 74.260 C 185.009 74.953,183.900 76.010,182.952 76.609 C 182.004 77.208,180.218 78.801,178.984 80.149 C 174.358 85.202,171.649 87.950,170.647 88.606 C 170.079 88.978,169.238 89.892,168.778 90.636 C 168.318 91.380,167.451 92.279,166.852 92.633 C 166.253 92.986,165.336 93.900,164.813 94.663 C 164.290 95.426,163.364 96.308,162.755 96.623 C 162.146 96.938,161.322 97.749,160.924 98.426 C 160.526 99.102,159.600 100.027,158.867 100.481 C 157.354 101.418,149.823 108.876,148.844 110.407 C 148.169 111.463,145.415 114.148,140.427 118.614 C 138.792 120.078,136.849 122.069,136.109 123.038 C 135.369 124.007,134.595 124.800,134.390 124.800 C 132.631 124.800,130.999 131.133,132.489 132.177 C 134.659 133.697,134.889 133.526,146.600 121.700 C 152.646 115.595,157.819 110.371,158.096 110.092 C 158.373 109.812,159.950 108.274,161.600 106.675 C 163.250 105.075,165.232 103.053,166.003 102.183 C 166.775 101.312,169.610 98.503,172.303 95.939 C 174.997 93.375,177.200 91.089,177.200 90.858 C 177.200 90.627,177.965 89.907,178.900 89.258 C 180.892 87.874,184.824 84.051,188.171 80.244 C 189.475 78.761,191.026 77.297,191.619 76.990 C 192.211 76.684,193.908 74.998,195.388 73.243 C 198.804 69.195,199.843 68.689,204.783 68.664 C 214.491 68.615,215.848 69.374,213.424 73.497 C 212.680 74.764,211.514 76.126,210.833 76.524 C 210.153 76.922,209.341 77.741,209.029 78.344 C 208.717 78.947,207.271 80.601,205.815 82.020 C 204.359 83.439,202.706 85.050,202.142 85.600 C 201.578 86.150,198.889 88.895,196.166 91.700 C 193.443 94.505,190.954 96.800,190.635 96.800 C 190.316 96.800,189.654 97.385,189.165 98.100 C 187.469 100.580,181.718 106.453,179.032 108.447 C 178.170 109.087,177.149 110.130,176.763 110.765 C 176.377 111.399,175.510 112.244,174.837 112.642 C 174.164 113.039,173.334 113.952,172.994 114.670 C 172.653 115.387,172.099 116.129,171.763 116.317 C 171.426 116.505,170.397 117.376,169.476 118.251 C 168.554 119.127,166.450 121.093,164.800 122.620 C 163.150 124.147,161.320 126.146,160.732 127.061 C 160.145 127.977,159.316 128.836,158.890 128.972 C 158.463 129.107,156.897 130.519,155.410 132.109 C 151.462 136.329,147.802 140.050,146.415 141.254 C 143.807 143.517,145.504 147.000,149.214 147.000 C 151.129 147.000,151.382 146.887,152.346 145.600 C 153.843 143.600,158.810 138.485,173.467 123.849 C 180.544 116.782,186.484 110.730,186.667 110.400 C 186.850 110.070,188.260 108.645,189.800 107.234 C 191.340 105.822,195.480 101.856,199.000 98.420 C 202.520 94.984,206.054 91.617,206.854 90.939 C 207.654 90.260,208.940 88.717,209.713 87.509 C 210.617 86.096,212.596 84.096,215.259 81.905 C 217.537 80.031,220.336 77.420,221.479 76.104 C 224.358 72.790,225.810 72.153,229.099 72.759 C 236.997 74.214,239.691 77.123,236.072 80.287 C 235.262 80.995,234.420 81.790,234.200 82.052 C 233.874 82.441,230.545 85.748,226.291 89.907 C 224.042 92.106,220.800 95.704,220.800 96.000 C 220.800 96.191,220.451 96.457,220.025 96.592 C 219.598 96.728,218.252 97.820,217.033 99.019 C 215.814 100.219,214.676 101.200,214.503 101.200 C 214.330 101.200,213.741 101.935,213.194 102.833 C 212.647 103.731,211.710 104.723,211.112 105.037 C 210.513 105.351,209.809 106.009,209.548 106.498 C 209.286 106.987,207.848 108.560,206.353 109.994 C 204.858 111.427,203.041 113.169,202.317 113.864 C 201.593 114.559,199.560 116.709,197.800 118.643 C 196.040 120.577,192.002 124.689,188.828 127.780 C 185.653 130.871,181.783 134.737,180.228 136.370 C 178.672 138.004,175.247 141.424,172.615 143.970 C 158.946 157.197,158.126 158.341,160.700 160.607 C 162.950 162.587,165.887 161.085,170.646 155.521 C 173.511 152.171,176.266 149.357,187.729 138.069 C 189.889 135.941,192.279 133.244,193.040 132.075 C 193.987 130.619,194.891 129.755,195.911 129.332 C 197.933 128.492,206.482 120.043,208.634 116.758 C 209.585 115.305,210.863 113.789,211.473 113.389 C 212.083 112.989,213.739 111.505,215.153 110.092 C 216.567 108.678,218.641 106.802,219.762 105.923 C 221.616 104.470,229.057 96.837,231.000 94.395 C 231.440 93.842,232.723 92.718,233.851 91.897 C 234.979 91.075,236.410 89.728,237.030 88.902 C 243.205 80.680,249.583 78.020,253.767 81.923 C 254.445 82.556,255.585 83.474,256.300 83.964 C 258.156 85.236,258.130 87.101,256.235 88.546 C 255.484 89.119,254.629 89.851,254.335 90.172 C 254.041 90.494,252.720 91.953,251.400 93.416 C 247.796 97.410,245.123 100.045,243.939 100.772 C 243.355 101.131,241.718 102.859,240.301 104.612 C 238.884 106.365,236.500 108.880,235.003 110.200 C 233.506 111.520,231.273 113.676,230.041 114.990 C 228.808 116.305,226.571 118.555,225.070 119.990 C 223.568 121.426,221.228 123.763,219.870 125.184 C 216.201 129.023,205.252 139.957,203.193 141.838 C 202.207 142.739,197.440 147.594,192.600 152.627 C 181.518 164.149,179.742 165.884,177.037 167.827 C 173.587 170.305,172.909 172.981,175.245 174.905 C 177.570 176.820,179.406 176.172,182.681 172.281 C 184.016 170.697,186.004 168.680,187.100 167.800 C 188.195 166.920,189.573 165.531,190.162 164.714 C 190.750 163.897,192.067 162.547,193.088 161.714 C 194.108 160.881,195.766 159.300,196.772 158.200 C 198.514 156.294,205.017 149.852,208.000 147.077 C 208.770 146.361,210.585 144.520,212.034 142.987 C 213.483 141.454,215.771 139.120,217.119 137.800 C 219.157 135.803,224.213 130.790,227.606 127.400 C 228.047 126.960,232.413 122.550,237.308 117.600 C 242.204 112.650,246.838 108.027,247.605 107.327 C 248.372 106.627,249.810 105.122,250.800 103.983 C 251.790 102.844,253.519 101.293,254.642 100.537 C 255.765 99.782,256.935 98.685,257.242 98.099 C 257.549 97.514,258.494 96.404,259.341 95.634 C 260.189 94.863,261.495 93.275,262.243 92.105 C 264.320 88.859,267.282 88.174,269.425 90.445 C 270.071 91.130,271.239 92.100,272.020 92.600 C 276.179 95.262,275.983 97.966,271.307 102.433 C 266.417 107.106,258.152 115.269,250.600 122.886 C 245.231 128.301,238.966 134.529,234.400 138.990 C 233.850 139.527,231.566 141.847,229.326 144.146 C 227.085 146.444,224.736 148.629,224.107 149.000 C 223.478 149.372,222.522 150.332,221.982 151.135 C 221.088 152.463,206.352 167.362,203.680 169.638 C 203.060 170.167,202.027 171.300,201.387 172.155 C 200.746 173.010,198.057 175.688,195.411 178.107 C 188.192 184.707,187.080 186.818,189.673 189.000 C 191.549 190.579,195.093 189.493,196.672 186.855 C 197.319 185.774,205.976 177.200,206.420 177.200 C 206.680 177.200,207.368 176.491,210.857 172.627 C 212.746 170.535,218.069 165.154,219.932 163.454 C 220.515 162.921,221.720 161.739,227.759 155.774 C 228.441 155.100,230.276 153.210,231.836 151.574 C 233.396 149.938,235.016 148.307,235.436 147.948 C 235.856 147.590,236.876 146.600,237.703 145.748 C 238.529 144.897,239.519 143.878,239.903 143.484 C 240.727 142.637,250.005 133.414,251.943 131.516 C 252.681 130.792,258.993 124.417,265.968 117.349 C 281.144 101.972,282.197 101.274,285.320 104.537 C 286.024 105.272,287.455 106.554,288.500 107.385 C 291.544 109.806,290.733 113.380,286.503 116.179 C 285.676 116.727,284.100 118.200,283.000 119.453 C 277.264 125.987,275.880 127.408,274.063 128.632 C 272.973 129.366,271.028 131.159,269.741 132.616 C 268.453 134.074,266.230 136.402,264.800 137.790 C 259.519 142.915,256.838 145.612,249.855 152.823 C 245.925 156.880,241.612 161.168,240.271 162.352 C 238.929 163.535,236.289 166.195,234.404 168.262 C 232.519 170.330,230.424 172.358,229.748 172.768 C 229.072 173.179,225.589 176.728,222.007 180.655 C 218.424 184.581,215.006 188.090,214.411 188.452 C 213.816 188.814,212.928 189.620,212.437 190.243 C 211.947 190.867,209.812 192.952,207.693 194.877 C 205.574 196.802,203.613 198.787,203.334 199.289 C 201.841 201.979,203.574 204.666,206.547 204.270 C 208.135 204.058,208.303 203.922,213.557 198.600 C 214.426 197.720,215.427 196.730,215.782 196.400 C 216.137 196.070,217.020 195.170,217.745 194.400 C 218.469 193.630,219.497 192.629,220.031 192.175 C 220.564 191.720,221.270 191.035,221.600 190.652 C 221.930 190.269,222.920 189.275,223.800 188.444 C 224.680 187.613,227.200 185.008,229.400 182.655 C 233.875 177.870,233.707 178.036,236.962 175.118 C 238.261 173.953,243.548 168.770,248.710 163.600 C 259.041 153.255,259.685 152.610,270.148 142.152 C 274.137 138.165,278.694 133.575,280.275 131.952 C 281.856 130.328,284.646 127.554,286.475 125.786 C 288.304 124.019,290.094 122.219,290.454 121.786 C 292.048 119.871,295.207 117.200,295.878 117.200 C 297.785 117.200,303.600 124.133,303.600 126.405 C 303.600 127.410,302.416 128.989,299.100 132.402 C 297.835 133.705,296.800 134.933,296.800 135.132 C 296.800 135.331,296.094 135.961,295.232 136.532 C 294.369 137.102,293.351 138.071,292.969 138.685 C 292.587 139.298,291.124 140.790,289.718 142.000 C 287.100 144.252,273.070 158.046,272.510 158.917 C 272.340 159.183,271.390 160.062,270.400 160.871 C 267.936 162.885,266.377 164.431,259.200 171.977 C 252.482 179.041,248.107 183.489,245.963 185.438 C 245.213 186.119,243.537 187.794,242.237 189.160 C 240.937 190.526,239.514 191.895,239.075 192.203 C 237.901 193.025,229.352 201.508,226.800 204.384 C 223.769 207.799,223.833 207.733,222.486 208.866 C 221.825 209.423,221.011 210.400,220.678 211.039 C 220.344 211.678,219.515 212.729,218.836 213.375 C 216.235 215.847,218.121 219.801,221.370 218.688 C 222.897 218.165,225.200 216.460,225.200 215.853 C 225.199 215.407,227.705 212.723,231.164 209.462 C 233.779 206.998,252.633 188.137,258.441 182.175 C 261.214 179.329,264.511 176.100,265.768 175.000 C 267.025 173.900,268.446 172.570,268.926 172.045 C 270.054 170.811,277.113 163.410,278.858 161.632 C 279.596 160.880,283.440 157.141,287.400 153.322 C 299.303 141.844,300.777 140.347,301.654 138.843 C 304.120 134.610,308.209 133.084,309.507 135.911 C 309.883 136.730,310.958 138.362,311.895 139.537 C 314.332 142.591,314.161 147.429,311.567 148.818 C 310.280 149.506,306.324 152.731,305.523 153.744 C 304.436 155.118,301.355 158.340,296.053 163.648 C 293.332 166.372,290.632 169.122,290.053 169.761 C 289.474 170.400,287.560 172.341,285.800 174.076 C 276.206 183.530,273.180 186.633,273.000 187.199 C 272.891 187.544,272.268 188.142,271.617 188.526 C 270.966 188.911,269.931 189.926,269.317 190.783 C 268.703 191.640,267.750 192.615,267.200 192.949 C 266.650 193.283,264.176 195.592,261.701 198.078 C 254.895 204.920,253.200 206.733,253.200 207.173 C 253.200 207.394,252.255 208.287,251.100 209.157 C 248.526 211.097,246.295 213.264,240.600 219.358 C 238.180 221.947,235.547 224.489,234.749 225.007 C 232.755 226.301,231.102 229.600,231.655 231.185 C 232.472 233.529,235.444 233.425,238.083 230.959 C 239.118 229.992,240.123 229.200,240.315 229.200 C 241.093 229.200,257.252 212.412,257.714 211.123 C 257.848 210.751,258.462 210.135,259.079 209.754 C 259.695 209.373,261.100 208.198,262.200 207.144 C 263.300 206.090,266.180 203.323,268.600 200.995 C 271.020 198.668,273.270 196.511,273.600 196.203 C 277.639 192.430,289.637 179.896,290.136 178.928 C 290.496 178.229,291.114 177.554,291.508 177.429 C 292.255 177.192,301.455 168.160,302.072 167.058 C 302.266 166.710,303.393 165.783,304.577 164.998 C 305.760 164.213,307.235 162.906,307.854 162.094 C 308.474 161.281,310.044 159.443,311.344 158.008 C 312.644 156.574,313.893 154.995,314.118 154.500 C 314.982 152.604,318.400 153.888,318.400 156.108 C 318.400 156.402,318.947 157.506,319.616 158.561 C 323.093 164.044,322.567 165.800,315.193 173.319 C 311.913 176.664,308.982 179.655,308.681 179.967 C 306.898 181.811,305.639 183.073,304.400 184.257 C 303.630 184.992,302.640 185.999,302.200 186.494 C 301.760 186.988,300.807 187.934,300.083 188.596 C 298.899 189.679,294.055 194.476,292.317 196.288 C 290.081 198.619,288.913 199.784,288.240 200.355 C 287.823 200.710,285.805 202.721,283.756 204.824 C 281.707 206.928,279.604 208.877,279.083 209.156 C 278.562 209.434,277.848 210.149,277.497 210.744 C 276.835 211.864,265.888 222.926,261.608 226.800 C 260.271 228.010,258.921 229.270,258.609 229.600 C 256.993 231.305,255.175 233.111,254.149 234.030 C 253.517 234.597,252.190 236.033,251.200 237.221 C 250.210 238.409,248.635 240.159,247.700 241.109 C 243.921 244.951,246.472 249.227,251.116 246.836 C 253.229 245.747,260.381 238.438,262.041 235.669 C 262.349 235.157,264.580 233.070,267.000 231.033 C 269.420 228.996,272.930 225.680,274.800 223.665 C 280.135 217.918,303.549 194.457,306.074 192.330 C 307.324 191.276,308.996 189.437,309.789 188.243 C 310.581 187.050,311.682 185.776,312.235 185.414 C 312.788 185.052,314.536 183.486,316.120 181.934 C 322.762 175.427,324.342 176.013,325.188 185.300 C 325.652 190.393,325.453 191.714,324.043 192.908 C 323.463 193.399,322.605 194.341,322.136 195.003 C 321.667 195.665,317.114 200.435,312.019 205.603 C 306.923 210.771,302.247 215.540,301.628 216.200 C 301.009 216.860,299.174 218.518,297.551 219.884 C 295.928 221.250,293.520 223.575,292.200 225.050 C 290.880 226.526,288.807 228.738,287.593 229.966 C 286.380 231.195,284.208 233.460,282.767 235.000 C 281.326 236.540,279.014 238.790,277.630 240.000 C 276.246 241.210,274.637 242.723,274.056 243.362 C 270.723 247.030,265.083 252.464,263.710 253.330 C 259.715 255.853,259.448 262.000,263.334 262.000 C 264.546 262.000,280.202 247.038,290.600 235.942 C 291.920 234.533,294.170 232.286,295.600 230.949 C 297.030 229.611,298.830 227.842,299.600 227.018 C 302.439 223.979,305.491 220.914,308.973 217.600 C 315.680 211.219,322.272 204.584,322.457 204.028 C 322.585 203.646,322.969 203.556,323.697 203.738 C 325.685 204.237,325.820 213.239,323.908 217.800 C 323.355 219.120,322.681 221.148,322.409 222.308 C 321.979 224.149,321.705 224.539,320.236 225.400 C 319.303 225.947,318.275 226.966,317.926 227.692 C 317.580 228.412,316.190 229.990,314.837 231.200 C 313.484 232.410,309.697 236.010,306.421 239.200 C 303.144 242.390,299.144 246.269,297.532 247.820 C 295.919 249.371,293.250 252.206,291.600 254.120 C 289.950 256.034,288.293 257.700,287.917 257.822 C 287.541 257.944,286.123 259.338,284.766 260.922 C 283.409 262.505,281.743 264.250,281.064 264.800 C 274.541 270.085,272.601 274.722,276.271 276.255 C 277.971 276.966,279.359 276.709,280.440 275.485 C 284.596 270.779,286.127 269.137,288.145 267.223 C 289.434 266.001,294.066 261.490,298.437 257.200 C 315.870 240.091,316.385 239.661,317.027 241.686 C 317.798 244.116,317.105 246.697,315.100 248.856 C 314.526 249.475,313.838 251.031,313.441 252.612 C 312.707 255.533,311.789 257.600,311.225 257.600 C 311.031 257.600,310.468 258.455,309.974 259.500 C 309.480 260.545,308.458 262.278,307.702 263.351 C 306.946 264.425,305.977 266.120,305.549 267.119 C 305.120 268.119,304.192 269.625,303.485 270.468 C 300.639 273.861,299.658 275.116,297.832 277.704 C 296.783 279.191,295.616 280.631,295.239 280.904 C 294.862 281.177,293.972 282.252,293.262 283.294 C 292.551 284.336,291.636 285.367,291.227 285.586 C 288.386 287.106,290.445 289.529,315.100 313.686 C 315.593 314.168,353.391 351.981,357.299 355.900 C 357.463 356.065,364.768 363.400,373.532 372.200 C 382.295 381.000,390.081 388.759,390.833 389.442 C 391.585 390.125,393.190 391.815,394.400 393.197 C 397.431 396.661,398.476 397.600,399.296 397.600 C 399.967 397.600,400.000 388.306,400.000 198.800 L 400.000 0.000 201.200 0.000 C 50.950 0.000,2.400 0.113,2.400 0.463 M206.256 19.878 C 210.411 22.309,211.800 24.950,211.800 30.419 L 211.800 34.637 210.091 37.260 C 204.503 45.838,191.529 43.589,188.541 33.525 C 185.523 23.365,197.044 14.489,206.256 19.878 M138.600 32.046 C 144.631 33.709,149.311 43.900,145.986 48.127 C 145.538 48.697,144.985 49.698,144.757 50.353 C 144.369 51.465,140.757 54.408,139.797 54.394 C 139.578 54.391,138.191 54.782,136.713 55.263 L 134.026 56.138 131.208 55.003 C 116.169 48.949,122.997 27.743,138.600 32.046 M271.314 32.929 C 275.112 35.154,277.781 40.104,277.444 44.296 C 276.455 56.585,260.381 59.756,254.655 48.792 C 249.304 38.545,261.341 27.084,271.314 32.929 M326.321 69.655 C 328.988 71.030,330.805 72.984,331.566 75.294 C 331.837 76.116,332.225 76.892,332.429 77.018 C 334.575 78.344,331.417 87.626,327.873 90.414 C 322.386 94.730,311.379 91.629,309.613 85.270 C 306.394 73.682,316.257 64.464,326.321 69.655 M361.827 124.589 C 370.279 127.112,372.468 140.927,365.135 145.466 C 362.329 147.203,356.090 148.031,353.296 147.038 C 342.525 143.210,343.535 125.653,354.598 124.385 C 358.525 123.935,359.752 123.969,361.827 124.589 M375.241 189.889 C 383.347 193.474,385.412 204.050,379.105 209.679 C 373.649 214.550,367.322 214.373,361.971 209.200 C 352.956 200.483,363.733 184.798,375.241 189.889 M365.104 256.689 C 366.309 257.519,367.465 258.649,367.672 259.199 C 367.879 259.750,368.328 260.740,368.670 261.400 C 369.604 263.205,369.846 268.097,369.091 269.916 C 368.753 270.732,368.251 272.000,367.975 272.733 C 367.310 274.508,363.827 277.047,361.075 277.764 C 358.266 278.495,351.200 277.824,351.200 276.826 C 351.200 276.650,350.497 276.041,349.638 275.473 C 342.988 271.072,345.408 257.342,353.234 255.076 C 356.587 254.105,362.523 254.912,365.104 256.689 " stroke="none" fill="#fafbf5" fill-rule="evenodd"></path><path id="path2" d="M201.765 68.780 C 199.119 69.192,198.273 69.784,195.392 73.243 C 194.077 74.823,192.370 76.514,191.600 77.002 C 190.830 77.489,189.210 79.026,188.000 80.419 C 184.908 83.976,180.902 87.868,178.900 89.258 C 177.965 89.907,177.200 90.627,177.200 90.858 C 177.200 91.089,174.997 93.375,172.303 95.939 C 169.610 98.503,166.775 101.312,166.003 102.183 C 165.232 103.053,163.250 105.075,161.600 106.675 C 159.950 108.274,158.373 109.812,158.096 110.092 C 157.819 110.371,152.646 115.595,146.600 121.700 C 134.889 133.526,134.659 133.697,132.489 132.177 C 130.999 131.133,132.631 124.800,134.390 124.800 C 134.595 124.800,135.369 124.007,136.109 123.038 C 136.849 122.069,138.792 120.078,140.427 118.614 C 145.415 114.148,148.169 111.463,148.844 110.407 C 149.823 108.876,157.354 101.418,158.867 100.481 C 159.600 100.027,160.526 99.102,160.924 98.426 C 161.322 97.749,162.146 96.938,162.755 96.623 C 163.364 96.308,164.290 95.426,164.813 94.663 C 165.336 93.900,166.253 92.986,166.852 92.633 C 167.451 92.279,168.318 91.380,168.778 90.636 C 169.238 89.892,170.079 88.978,170.647 88.606 C 171.649 87.950,174.358 85.202,178.984 80.149 C 180.218 78.801,182.004 77.208,182.952 76.609 C 183.900 76.010,185.009 74.953,185.416 74.260 C 185.824 73.567,186.572 72.672,187.079 72.271 C 187.659 71.812,188.000 71.115,188.000 70.389 C 188.000 68.196,184.475 68.251,176.091 70.576 C 173.291 71.353,170.133 72.094,169.074 72.223 C 167.221 72.448,166.906 72.696,160.817 78.728 C 157.336 82.178,154.242 85.237,153.943 85.527 C 153.645 85.817,152.410 87.124,151.200 88.431 C 148.304 91.559,147.860 92.002,144.800 94.815 C 143.370 96.129,142.020 97.396,141.800 97.630 C 141.405 98.050,139.487 100.064,134.367 105.437 C 132.919 106.957,131.074 108.800,130.267 109.532 C 129.460 110.265,128.800 111.015,128.800 111.198 C 128.800 111.381,127.930 112.067,126.867 112.721 C 125.719 113.427,124.731 114.401,124.433 115.120 C 123.813 116.618,120.496 118.210,118.853 117.800 C 115.963 117.079,115.464 114.298,117.900 112.495 C 118.725 111.884,120.570 110.145,122.000 108.629 C 123.430 107.114,125.035 105.497,125.568 105.037 C 126.100 104.577,127.900 102.821,129.568 101.135 C 131.235 99.449,133.906 96.749,135.502 95.135 C 137.098 93.521,138.898 91.706,139.502 91.103 C 141.866 88.740,148.253 82.026,149.200 80.908 C 149.750 80.259,150.468 79.640,150.795 79.532 C 151.298 79.367,151.312 79.164,150.882 78.221 C 150.262 76.859,148.742 76.993,146.644 78.594 C 145.918 79.147,144.326 79.929,143.106 80.332 C 141.886 80.734,140.192 81.600,139.344 82.256 C 138.495 82.911,137.010 83.699,136.045 84.006 C 135.079 84.313,133.369 85.144,132.245 85.853 C 131.120 86.562,128.669 87.960,126.798 88.960 C 124.927 89.961,122.451 91.681,121.297 92.782 C 120.142 93.884,117.892 95.640,116.298 96.685 C 112.499 99.175,106.737 104.556,103.910 108.252 C 103.091 109.323,101.142 111.640,99.581 113.400 C 98.019 115.160,96.180 117.410,95.494 118.400 C 94.808 119.390,93.939 120.423,93.563 120.695 C 93.186 120.967,92.029 122.497,90.990 124.095 C 89.950 125.693,88.511 127.630,87.791 128.400 C 86.673 129.595,84.800 132.988,84.800 133.818 C 84.800 134.367,83.429 137.056,82.512 138.303 C 81.986 139.019,81.223 140.549,80.817 141.703 C 80.411 142.856,79.432 145.005,78.640 146.478 C 77.848 147.951,77.200 149.400,77.200 149.699 C 77.200 149.998,76.770 151.133,76.245 152.221 C 73.667 157.562,73.102 159.209,72.573 162.919 C 72.266 165.075,71.372 169.395,70.587 172.519 C 68.800 179.635,68.313 184.961,68.273 197.800 C 68.225 213.340,68.993 219.950,71.858 228.667 C 72.376 230.244,72.800 231.987,72.800 232.541 C 72.800 233.721,75.092 241.037,75.827 242.200 C 76.105 242.640,76.595 243.900,76.916 245.000 C 77.237 246.100,78.034 247.990,78.687 249.200 C 79.340 250.410,80.277 252.613,80.768 254.096 C 81.260 255.578,81.817 256.887,82.007 257.004 C 82.196 257.121,82.934 258.248,83.646 259.508 C 84.359 260.769,85.701 262.790,86.628 264.000 C 87.555 265.210,88.609 266.740,88.970 267.400 C 91.139 271.366,92.354 273.225,95.246 277.007 C 95.822 277.759,96.510 278.875,96.776 279.487 C 97.042 280.099,98.377 281.490,99.743 282.578 C 101.109 283.666,103.021 285.601,103.992 286.878 C 104.963 288.155,105.891 289.200,106.055 289.200 C 106.219 289.200,107.129 289.965,108.078 290.900 C 109.027 291.835,111.242 293.852,113.001 295.383 C 114.761 296.914,116.650 298.584,117.200 299.095 C 117.750 299.606,119.129 300.552,120.265 301.196 C 121.400 301.840,122.930 302.965,123.665 303.695 C 126.784 306.799,134.268 311.124,140.800 313.599 C 141.570 313.891,143.303 314.734,144.652 315.472 C 146.000 316.211,148.343 317.237,149.859 317.752 C 151.375 318.268,153.358 319.069,154.267 319.532 C 156.620 320.733,160.941 321.868,167.432 322.993 C 170.530 323.529,173.549 324.153,174.142 324.378 C 182.422 327.526,219.687 326.354,225.789 322.754 C 226.498 322.335,228.514 321.813,230.269 321.593 C 234.030 321.121,243.576 317.967,248.260 315.649 C 250.053 314.761,252.033 313.913,252.660 313.763 C 255.100 313.181,259.721 310.707,263.029 308.212 C 264.934 306.775,266.651 305.600,266.845 305.600 C 267.039 305.600,267.873 305.004,268.699 304.275 C 269.524 303.546,271.640 301.922,273.400 300.666 C 275.160 299.410,276.979 298.111,277.442 297.779 C 277.906 297.446,279.299 296.235,280.539 295.087 C 283.978 291.903,286.034 290.216,287.889 289.058 C 288.817 288.479,289.846 287.485,290.174 286.851 C 290.502 286.216,291.030 285.597,291.347 285.476 C 291.665 285.354,292.516 284.387,293.239 283.327 C 293.962 282.267,294.862 281.177,295.239 280.904 C 295.616 280.631,296.783 279.191,297.832 277.704 C 299.656 275.118,300.626 273.877,303.485 270.468 C 304.192 269.625,305.121 268.118,305.549 267.119 C 305.977 266.120,306.946 264.425,307.702 263.351 C 308.458 262.278,309.480 260.545,309.974 259.500 C 310.468 258.455,311.031 257.600,311.225 257.600 C 311.789 257.600,312.707 255.533,313.441 252.612 C 313.838 251.031,314.526 249.475,315.100 248.856 C 317.105 246.697,317.798 244.116,317.027 241.686 C 316.385 239.661,315.870 240.091,298.437 257.200 C 294.066 261.490,289.434 266.001,288.145 267.223 C 286.127 269.137,284.596 270.779,280.440 275.485 C 279.359 276.709,277.971 276.966,276.271 276.255 C 272.601 274.722,274.541 270.085,281.064 264.800 C 281.743 264.250,283.409 262.505,284.766 260.922 C 286.123 259.338,287.541 257.944,287.917 257.822 C 288.293 257.700,289.950 256.034,291.600 254.120 C 293.250 252.206,295.919 249.371,297.532 247.820 C 299.144 246.269,303.144 242.390,306.421 239.200 C 309.697 236.010,313.484 232.410,314.837 231.200 C 316.190 229.990,317.580 228.412,317.926 227.692 C 318.275 226.966,319.303 225.947,320.236 225.400 C 321.705 224.539,321.979 224.149,322.409 222.308 C 322.681 221.148,323.355 219.120,323.908 217.800 C 325.820 213.239,325.685 204.237,323.697 203.738 C 322.969 203.556,322.585 203.646,322.457 204.028 C 322.272 204.584,315.680 211.219,308.973 217.600 C 305.491 220.914,302.439 223.979,299.600 227.018 C 298.830 227.842,297.030 229.611,295.600 230.949 C 294.170 232.286,291.920 234.533,290.600 235.942 C 280.202 247.038,264.546 262.000,263.334 262.000 C 259.448 262.000,259.715 255.853,263.710 253.330 C 265.083 252.464,270.723 247.030,274.056 243.362 C 274.637 242.723,276.246 241.210,277.630 240.000 C 279.014 238.790,281.326 236.540,282.767 235.000 C 284.208 233.460,286.380 231.195,287.593 229.966 C 288.807 228.738,290.880 226.526,292.200 225.050 C 293.520 223.575,295.928 221.250,297.551 219.884 C 299.174 218.518,301.009 216.860,301.628 216.200 C 302.247 215.540,306.923 210.771,312.019 205.603 C 317.114 200.435,321.667 195.665,322.136 195.003 C 322.605 194.341,323.463 193.399,324.043 192.908 C 325.453 191.714,325.652 190.393,325.188 185.300 C 324.342 176.013,322.762 175.427,316.120 181.934 C 314.536 183.486,312.788 185.052,312.235 185.414 C 311.682 185.776,310.581 187.050,309.789 188.243 C 308.996 189.437,307.324 191.276,306.074 192.330 C 303.549 194.457,280.135 217.918,274.800 223.665 C 272.930 225.680,269.420 228.996,267.000 231.033 C 264.580 233.070,262.349 235.157,262.041 235.669 C 260.381 238.438,253.229 245.747,251.116 246.836 C 246.472 249.227,243.921 244.951,247.700 241.109 C 248.635 240.159,250.210 238.409,251.200 237.221 C 252.190 236.033,253.517 234.597,254.149 234.030 C 255.182 233.105,256.776 231.522,258.549 229.660 C 258.894 229.297,260.271 228.010,261.608 226.800 C 265.888 222.926,276.835 211.864,277.497 210.744 C 277.848 210.149,278.562 209.434,279.083 209.156 C 279.604 208.877,281.707 206.928,283.756 204.824 C 285.805 202.721,287.823 200.710,288.240 200.355 C 288.913 199.784,290.081 198.619,292.317 196.288 C 294.055 194.476,298.899 189.679,300.083 188.596 C 300.807 187.934,301.760 186.988,302.200 186.494 C 302.640 185.999,303.630 184.992,304.400 184.257 C 305.644 183.068,306.740 181.970,308.648 180.000 C 308.967 179.670,311.913 176.664,315.193 173.319 C 322.567 165.800,323.093 164.044,319.616 158.561 C 318.947 157.506,318.400 156.402,318.400 156.108 C 318.400 153.888,314.982 152.604,314.118 154.500 C 313.893 154.995,312.644 156.574,311.344 158.008 C 310.044 159.443,308.474 161.281,307.854 162.094 C 307.235 162.906,305.760 164.213,304.577 164.998 C 303.393 165.783,302.266 166.710,302.072 167.058 C 301.455 168.160,292.255 177.192,291.508 177.429 C 291.114 177.554,290.496 178.229,290.136 178.928 C 289.637 179.896,277.639 192.430,273.600 196.203 C 273.270 196.511,271.020 198.668,268.600 200.995 C 266.180 203.323,263.300 206.090,262.200 207.144 C 261.100 208.198,259.695 209.373,259.079 209.754 C 258.462 210.135,257.848 210.751,257.714 211.123 C 257.252 212.412,241.093 229.200,240.315 229.200 C 240.123 229.200,239.118 229.992,238.083 230.959 C 235.444 233.425,232.472 233.529,231.655 231.185 C 231.102 229.600,232.755 226.301,234.749 225.007 C 235.547 224.489,238.180 221.947,240.600 219.358 C 246.295 213.264,248.526 211.097,251.100 209.157 C 252.255 208.287,253.200 207.394,253.200 207.173 C 253.200 206.733,254.895 204.920,261.701 198.078 C 264.176 195.592,266.650 193.283,267.200 192.949 C 267.750 192.615,268.703 191.640,269.317 190.783 C 269.931 189.926,270.966 188.911,271.617 188.526 C 272.268 188.142,272.891 187.544,273.000 187.199 C 273.180 186.633,276.206 183.530,285.800 174.076 C 287.560 172.341,289.474 170.400,290.053 169.761 C 290.632 169.122,293.332 166.372,296.053 163.648 C 301.355 158.340,304.436 155.118,305.523 153.744 C 306.324 152.731,310.280 149.506,311.567 148.818 C 314.161 147.429,314.332 142.591,311.895 139.537 C 310.958 138.362,309.883 136.730,309.507 135.911 C 308.209 133.084,304.120 134.610,301.654 138.843 C 300.777 140.347,299.303 141.844,287.400 153.322 C 283.440 157.141,279.596 160.880,278.858 161.632 C 277.113 163.410,270.054 170.811,268.926 172.045 C 268.446 172.570,267.025 173.900,265.768 175.000 C 264.511 176.100,261.214 179.329,258.441 182.175 C 252.633 188.137,233.779 206.998,231.164 209.462 C 227.705 212.723,225.199 215.407,225.200 215.853 C 225.200 216.460,222.897 218.165,221.370 218.688 C 218.121 219.801,216.235 215.847,218.836 213.375 C 219.515 212.729,220.344 211.678,220.678 211.039 C 221.011 210.400,221.825 209.423,222.486 208.866 C 223.833 207.733,223.769 207.799,226.800 204.384 C 229.352 201.508,237.901 193.025,239.075 192.203 C 239.514 191.895,240.937 190.526,242.237 189.160 C 243.537 187.794,245.213 186.119,245.963 185.438 C 248.107 183.489,252.482 179.041,259.200 171.977 C 266.377 164.431,267.936 162.885,270.400 160.871 C 271.390 160.062,272.340 159.183,272.510 158.917 C 273.070 158.046,287.100 144.252,289.718 142.000 C 291.124 140.790,292.587 139.298,292.969 138.685 C 293.351 138.071,294.369 137.102,295.232 136.532 C 296.094 135.961,296.800 135.331,296.800 135.132 C 296.800 134.933,297.835 133.705,299.100 132.402 C 302.416 128.989,303.600 127.410,303.600 126.405 C 303.600 124.133,297.785 117.200,295.878 117.200 C 295.207 117.200,292.048 119.871,290.454 121.786 C 290.094 122.219,288.304 124.019,286.475 125.786 C 284.646 127.554,281.856 130.328,280.275 131.952 C 278.694 133.575,274.137 138.165,270.148 142.152 C 259.685 152.610,259.041 153.255,248.710 163.600 C 243.548 168.770,238.261 173.953,236.962 175.118 C 233.707 178.036,233.875 177.870,229.400 182.655 C 227.200 185.008,224.680 187.613,223.800 188.444 C 222.920 189.275,221.930 190.269,221.600 190.652 C 221.270 191.035,220.564 191.720,220.031 192.175 C 219.497 192.629,218.469 193.630,217.745 194.400 C 217.020 195.170,216.137 196.070,215.782 196.400 C 215.427 196.730,214.426 197.720,213.557 198.600 C 208.303 203.922,208.135 204.058,206.547 204.270 C 203.574 204.666,201.841 201.979,203.334 199.289 C 203.613 198.787,205.574 196.802,207.693 194.877 C 209.812 192.952,211.947 190.867,212.437 190.243 C 212.928 189.620,213.816 188.814,214.411 188.452 C 215.006 188.090,218.424 184.581,222.007 180.655 C 225.589 176.728,229.072 173.179,229.748 172.768 C 230.424 172.358,232.519 170.330,234.404 168.262 C 236.289 166.195,238.929 163.535,240.271 162.352 C 241.612 161.168,245.925 156.880,249.855 152.823 C 256.838 145.612,259.519 142.915,264.800 137.790 C 266.230 136.402,268.453 134.074,269.741 132.616 C 271.028 131.159,272.973 129.366,274.063 128.632 C 275.880 127.408,277.264 125.987,283.000 119.453 C 284.100 118.200,285.676 116.727,286.503 116.179 C 290.733 113.380,291.544 109.806,288.500 107.385 C 287.455 106.554,286.024 105.272,285.320 104.537 C 282.197 101.274,281.144 101.972,265.968 117.349 C 258.993 124.417,252.681 130.792,251.943 131.516 C 250.005 133.414,240.727 142.637,239.903 143.484 C 239.519 143.878,238.529 144.897,237.703 145.748 C 236.876 146.600,235.856 147.590,235.436 147.948 C 235.016 148.307,233.396 149.938,231.836 151.574 C 230.276 153.210,228.441 155.100,227.759 155.774 C 221.720 161.739,220.515 162.921,219.932 163.454 C 218.069 165.154,212.746 170.535,210.857 172.627 C 207.368 176.491,206.680 177.200,206.420 177.200 C 205.976 177.200,197.319 185.774,196.672 186.855 C 195.093 189.493,191.549 190.579,189.673 189.000 C 187.080 186.818,188.192 184.707,195.411 178.107 C 198.057 175.688,200.746 173.010,201.387 172.155 C 202.027 171.300,203.060 170.167,203.680 169.638 C 206.352 167.362,221.088 152.463,221.982 151.135 C 222.522 150.332,223.478 149.372,224.107 149.000 C 224.736 148.629,227.085 146.444,229.326 144.146 C 231.566 141.847,233.850 139.527,234.400 138.990 C 238.966 134.529,245.231 128.301,250.600 122.886 C 258.152 115.269,266.417 107.106,271.307 102.433 C 275.983 97.966,276.179 95.262,272.020 92.600 C 271.239 92.100,270.071 91.130,269.425 90.445 C 267.282 88.174,264.320 88.859,262.243 92.105 C 261.495 93.275,260.189 94.863,259.341 95.634 C 258.494 96.404,257.549 97.514,257.242 98.099 C 256.935 98.685,255.765 99.782,254.642 100.537 C 253.519 101.293,251.790 102.844,250.800 103.983 C 249.810 105.122,248.372 106.627,247.605 107.327 C 246.838 108.027,242.204 112.650,237.308 117.600 C 232.413 122.550,228.047 126.960,227.606 127.400 C 224.213 130.790,219.157 135.803,217.119 137.800 C 215.771 139.120,213.483 141.454,212.034 142.987 C 210.585 144.520,208.770 146.361,208.000 147.077 C 205.017 149.852,198.514 156.294,196.772 158.200 C 195.766 159.300,194.108 160.881,193.088 161.714 C 192.067 162.547,190.750 163.897,190.162 164.714 C 189.573 165.531,188.195 166.920,187.100 167.800 C 186.004 168.680,184.016 170.697,182.681 172.281 C 179.406 176.172,177.570 176.820,175.245 174.905 C 172.909 172.981,173.587 170.305,177.037 167.827 C 179.742 165.884,181.518 164.149,192.600 152.627 C 197.440 147.594,202.207 142.739,203.193 141.838 C 205.252 139.957,216.201 129.023,219.870 125.184 C 221.228 123.763,223.568 121.426,225.070 119.990 C 226.571 118.555,228.808 116.305,230.041 114.990 C 231.273 113.676,233.506 111.520,235.003 110.200 C 236.500 108.880,238.884 106.365,240.301 104.612 C 241.718 102.859,243.355 101.131,243.939 100.772 C 245.123 100.045,247.796 97.410,251.400 93.416 C 252.720 91.953,254.041 90.494,254.335 90.172 C 254.629 89.851,255.484 89.119,256.235 88.546 C 258.130 87.101,258.156 85.236,256.300 83.964 C 255.585 83.474,254.445 82.556,253.767 81.923 C 249.583 78.020,243.205 80.680,237.030 88.902 C 236.410 89.728,234.979 91.075,233.851 91.897 C 232.723 92.718,231.440 93.842,231.000 94.395 C 229.057 96.837,221.616 104.470,219.762 105.923 C 218.641 106.802,216.567 108.678,215.153 110.092 C 213.739 111.505,212.083 112.989,211.473 113.389 C 210.863 113.789,209.585 115.305,208.634 116.758 C 206.482 120.043,197.933 128.492,195.911 129.332 C 194.891 129.755,193.987 130.619,193.040 132.075 C 192.279 133.244,189.889 135.941,187.729 138.069 C 176.266 149.357,173.511 152.171,170.646 155.521 C 165.887 161.085,162.950 162.587,160.700 160.607 C 158.126 158.341,158.946 157.197,172.615 143.970 C 175.247 141.424,178.672 138.004,180.228 136.370 C 181.783 134.737,185.653 130.871,188.828 127.780 C 192.002 124.689,196.040 120.577,197.800 118.643 C 199.560 116.709,201.593 114.559,202.317 113.864 C 203.041 113.169,204.858 111.427,206.353 109.994 C 207.848 108.560,209.286 106.987,209.548 106.498 C 209.809 106.009,210.513 105.351,211.112 105.037 C 211.710 104.723,212.647 103.731,213.194 102.833 C 213.741 101.935,214.330 101.200,214.503 101.200 C 214.676 101.200,215.814 100.219,217.033 99.019 C 218.252 97.820,219.598 96.728,220.025 96.592 C 220.451 96.457,220.800 96.191,220.800 96.000 C 220.800 95.704,224.042 92.106,226.291 89.907 C 230.545 85.748,233.874 82.441,234.200 82.052 C 234.420 81.790,235.262 80.995,236.072 80.287 C 239.691 77.123,236.997 74.214,229.099 72.759 C 225.810 72.153,224.358 72.790,221.479 76.104 C 220.336 77.420,217.537 80.031,215.259 81.905 C 212.596 84.096,210.617 86.096,209.713 87.509 C 208.940 88.717,207.654 90.260,206.854 90.939 C 206.054 91.617,202.520 94.984,199.000 98.420 C 195.480 101.856,191.340 105.822,189.800 107.234 C 188.260 108.645,186.850 110.070,186.667 110.400 C 186.484 110.730,180.544 116.782,173.467 123.849 C 158.810 138.485,153.843 143.600,152.346 145.600 C 151.382 146.887,151.129 147.000,149.214 147.000 C 145.504 147.000,143.807 143.517,146.415 141.254 C 147.802 140.050,151.462 136.329,155.410 132.109 C 156.897 130.519,158.463 129.107,158.890 128.972 C 159.316 128.836,160.145 127.977,160.732 127.061 C 161.320 126.146,163.150 124.147,164.800 122.620 C 166.450 121.093,168.554 119.127,169.476 118.251 C 170.397 117.376,171.426 116.505,171.763 116.317 C 172.099 116.129,172.653 115.387,172.994 114.670 C 173.334 113.952,174.164 113.039,174.837 112.642 C 175.510 112.244,176.377 111.399,176.763 110.765 C 177.149 110.130,178.170 109.087,179.032 108.447 C 181.718 106.453,187.469 100.580,189.165 98.100 C 189.654 97.385,190.316 96.800,190.635 96.800 C 190.954 96.800,193.443 94.505,196.166 91.700 C 198.889 88.895,201.578 86.150,202.142 85.600 C 202.706 85.050,204.359 83.439,205.815 82.020 C 207.271 80.601,208.717 78.947,209.029 78.344 C 209.341 77.741,210.153 76.922,210.833 76.524 C 212.609 75.485,214.890 71.490,214.418 70.247 C 214.120 69.464,213.688 69.258,211.929 69.063 C 207.556 68.579,203.738 68.472,201.765 68.780 " stroke="none" fill="#faf217" fill-rule="evenodd"></path><path id="path3" d="M0.000 1.553 C 0.000 2.670,0.197 3.178,0.700 3.360 C 2.082 3.859,3.048 4.664,6.200 7.940 C 7.960 9.769,9.638 11.476,9.928 11.733 C 12.574 14.071,15.038 16.306,15.514 16.800 C 15.832 17.130,19.409 20.730,23.463 24.800 C 27.516 28.870,31.950 33.370,33.316 34.800 C 34.682 36.229,38.300 39.829,41.356 42.800 C 44.411 45.770,48.095 49.460,49.541 51.000 C 50.987 52.540,54.607 56.172,57.585 59.072 C 60.563 61.972,64.170 65.549,65.600 67.021 C 67.030 68.493,69.876 71.340,71.925 73.349 C 73.974 75.357,77.124 78.503,78.925 80.340 C 84.037 85.554,95.167 96.632,97.598 98.926 C 98.807 100.067,100.722 102.080,101.853 103.400 L 103.909 105.800 102.968 107.660 C 102.451 108.682,101.411 110.032,100.658 110.660 C 99.904 111.287,98.663 112.624,97.898 113.632 C 97.134 114.640,96.111 115.900,95.625 116.432 C 94.495 117.669,91.148 122.192,90.519 123.330 C 90.255 123.808,89.657 124.650,89.191 125.200 C 88.135 126.447,86.017 129.700,86.007 130.091 C 85.992 130.699,89.159 126.880,90.979 124.095 C 92.024 122.497,93.186 120.967,93.563 120.695 C 93.939 120.423,94.803 119.390,95.483 118.400 C 96.163 117.410,97.686 115.520,98.867 114.200 C 101.664 111.076,104.768 107.331,105.900 105.717 L 106.799 104.433 105.068 103.419 C 104.116 102.861,102.723 101.640,101.971 100.705 C 101.220 99.770,99.983 98.464,99.223 97.802 C 98.463 97.141,97.112 95.845,96.221 94.921 C 93.925 92.543,89.229 87.828,78.200 76.825 C 72.920 71.558,68.420 67.049,68.200 66.805 C 67.980 66.561,63.390 61.986,58.000 56.639 C 52.610 51.292,46.655 45.315,44.767 43.358 C 42.879 41.401,40.629 39.145,39.767 38.344 C 38.905 37.544,37.459 36.104,36.554 35.144 C 35.648 34.185,30.679 29.212,25.511 24.093 C 20.343 18.974,15.478 14.114,14.699 13.293 C 13.920 12.472,11.689 10.226,9.741 8.302 C 3.734 2.367,2.400 0.943,2.400 0.463 C 2.400 0.208,1.860 0.000,1.200 0.000 C 0.073 0.000,0.000 0.094,0.000 1.553 M203.054 18.781 C 203.744 18.946,204.852 19.467,205.516 19.940 C 206.180 20.413,206.866 20.800,207.040 20.800 C 207.214 20.800,207.873 21.295,208.504 21.899 C 209.281 22.644,209.563 22.770,209.379 22.290 C 209.007 21.319,203.983 18.390,202.777 18.441 C 201.943 18.476,201.983 18.526,203.054 18.781 M210.482 24.773 C 210.980 25.638,211.455 26.278,211.539 26.194 C 211.712 26.021,210.031 23.200,209.755 23.200 C 209.657 23.200,209.984 23.908,210.482 24.773 M133.900 31.889 C 134.615 31.978,135.785 31.978,136.500 31.889 C 137.215 31.801,136.630 31.728,135.200 31.728 C 133.770 31.728,133.185 31.801,133.900 31.889 M263.911 31.893 C 264.851 31.978,266.291 31.977,267.111 31.891 C 267.930 31.805,267.160 31.736,265.400 31.737 C 263.640 31.739,262.970 31.809,263.911 31.893 M188.800 34.369 C 188.800 35.181,190.714 38.184,191.894 39.223 L 193.000 40.197 191.934 38.999 C 191.347 38.339,190.402 36.918,189.834 35.840 C 189.265 34.763,188.800 34.101,188.800 34.369 M254.065 39.417 C 253.395 40.888,253.523 41.202,254.247 39.865 C 254.586 39.240,254.788 38.654,254.696 38.563 C 254.605 38.471,254.321 38.856,254.065 39.417 M206.300 40.629 C 204.805 41.440,204.896 41.778,206.400 41.000 C 207.060 40.659,207.600 40.294,207.600 40.190 C 207.600 39.932,207.557 39.947,206.300 40.629 M277.320 43.200 C 277.320 44.410,277.395 44.905,277.487 44.300 C 277.578 43.695,277.578 42.705,277.487 42.100 C 277.395 41.495,277.320 41.990,277.320 43.200 M253.229 44.200 C 253.192 45.415,253.972 47.935,254.483 48.251 C 254.797 48.446,254.836 48.297,254.610 47.766 C 254.431 47.345,254.053 46.190,253.769 45.200 C 253.486 44.210,253.243 43.760,253.229 44.200 M122.848 45.800 C 122.840 46.240,123.178 47.230,123.600 48.000 C 124.497 49.639,124.652 49.285,123.836 47.460 C 123.526 46.767,123.180 45.930,123.067 45.600 C 122.928 45.189,122.858 45.252,122.848 45.800 M146.400 46.111 C 146.400 46.612,146.116 47.467,145.768 48.011 L 145.136 49.000 145.968 48.056 C 146.698 47.228,147.146 45.200,146.600 45.200 C 146.490 45.200,146.400 45.610,146.400 46.111 M125.403 51.159 C 126.381 52.334,129.159 54.401,129.760 54.399 C 130.002 54.398,129.570 54.015,128.800 53.548 C 128.030 53.081,127.308 52.587,127.197 52.450 C 127.085 52.312,126.456 51.750,125.799 51.200 C 124.610 50.203,124.608 50.203,125.403 51.159 M321.905 68.683 C 322.402 68.779,323.122 68.775,323.505 68.675 C 323.887 68.575,323.480 68.496,322.600 68.501 C 321.720 68.505,321.407 68.587,321.905 68.683 M314.286 70.128 C 312.629 71.230,309.600 74.470,309.600 75.141 C 309.600 75.466,311.964 72.661,311.984 72.312 C 311.993 72.154,312.990 71.391,314.200 70.617 C 315.410 69.843,316.400 69.118,316.400 69.005 C 316.400 68.721,316.424 68.708,314.286 70.128 M309.601 85.411 C 309.596 86.875,315.175 92.049,316.692 91.988 C 316.861 91.981,316.309 91.550,315.464 91.031 C 313.531 89.843,311.327 87.760,310.353 86.200 C 309.940 85.540,309.602 85.185,309.601 85.411 M326.600 90.827 C 325.940 91.250,325.605 91.597,325.856 91.598 C 326.106 91.599,326.736 91.246,327.256 90.813 C 328.445 89.823,328.159 89.829,326.600 90.827 M317.905 92.283 C 318.402 92.379,319.122 92.375,319.505 92.275 C 319.887 92.175,319.480 92.096,318.600 92.101 C 317.720 92.105,317.407 92.187,317.905 92.283 M350.200 126.000 C 347.888 127.701,347.600 127.978,347.600 128.505 C 347.600 128.765,347.880 128.578,348.223 128.089 C 348.565 127.600,349.067 127.200,349.338 127.200 C 349.609 127.200,350.453 126.667,351.215 126.016 C 353.008 124.484,352.276 124.472,350.200 126.000 M362.433 124.921 C 362.525 124.988,363.140 125.358,363.800 125.745 L 365.000 126.447 364.056 125.624 C 363.536 125.171,362.921 124.800,362.689 124.800 C 362.457 124.800,362.342 124.854,362.433 124.921 M84.512 132.911 C 82.483 136.319,79.601 142.150,79.601 142.851 C 79.600 143.209,79.349 143.710,79.042 143.965 C 78.735 144.220,78.370 145.034,78.231 145.774 C 78.093 146.514,77.655 147.542,77.259 148.059 C 76.497 149.055,73.463 157.196,73.748 157.481 C 73.840 157.573,74.229 156.828,74.612 155.825 C 74.995 154.822,75.734 153.160,76.254 152.133 C 76.774 151.105,77.200 150.015,77.200 149.710 C 77.200 149.405,77.848 147.951,78.640 146.478 C 79.432 145.005,80.423 142.823,80.843 141.628 C 81.263 140.433,81.857 139.173,82.163 138.828 C 83.023 137.857,84.220 135.566,84.789 133.800 C 85.072 132.920,85.486 131.971,85.709 131.690 C 85.932 131.410,86.033 131.100,85.935 131.001 C 85.836 130.903,85.196 131.762,84.512 132.911 M345.709 134.800 C 345.709 135.790,345.787 136.195,345.882 135.700 C 345.978 135.205,345.978 134.395,345.882 133.900 C 345.787 133.405,345.709 133.810,345.709 134.800 M369.301 137.400 C 369.305 138.280,369.387 138.593,369.483 138.095 C 369.579 137.598,369.575 136.878,369.475 136.495 C 369.375 136.113,369.296 136.520,369.301 137.400 M348.000 143.200 C 348.470 143.860,348.944 144.400,349.054 144.400 C 349.164 144.400,348.870 143.860,348.400 143.200 C 347.930 142.540,347.456 142.000,347.346 142.000 C 347.236 142.000,347.530 142.540,348.000 143.200 M350.887 145.700 C 351.506 146.305,352.235 146.795,352.506 146.788 C 352.778 146.781,352.640 146.577,352.200 146.333 C 351.760 146.090,351.031 145.600,350.581 145.245 C 350.130 144.890,350.268 145.095,350.887 145.700 M364.900 145.246 C 363.537 146.119,363.095 146.706,364.300 146.043 C 365.218 145.539,366.656 144.427,366.400 144.419 C 366.290 144.416,365.615 144.788,364.900 145.246 M355.105 147.483 C 355.602 147.579,356.322 147.575,356.705 147.475 C 357.087 147.375,356.680 147.296,355.800 147.301 C 354.920 147.305,354.607 147.387,355.105 147.483 M72.432 161.415 C 72.414 162.084,72.047 163.323,71.616 164.169 C 71.175 165.034,70.648 167.300,70.411 169.353 C 70.180 171.359,69.794 173.720,69.554 174.600 C 69.314 175.480,68.946 177.460,68.738 179.000 C 68.529 180.540,68.005 183.780,67.573 186.200 C 66.439 192.552,66.431 207.835,67.561 210.702 C 67.980 211.764,68.414 213.075,68.526 213.616 C 68.637 214.157,68.614 212.890,68.473 210.800 C 67.581 197.548,68.495 180.855,70.564 172.600 C 72.092 166.504,72.979 161.475,72.663 160.695 C 72.553 160.423,72.449 160.747,72.432 161.415 M366.600 189.748 C 364.201 190.934,364.391 191.127,366.856 190.009 C 369.715 188.712,373.573 189.169,377.143 191.228 C 378.084 191.771,378.317 191.828,377.800 191.389 C 374.912 188.937,369.766 188.183,366.600 189.748 M382.531 201.000 C 382.533 202.540,382.605 203.121,382.692 202.291 C 382.779 201.461,382.777 200.201,382.689 199.491 C 382.600 198.781,382.529 199.460,382.531 201.000 M358.493 201.200 C 358.493 201.970,358.575 202.285,358.676 201.900 C 358.776 201.515,358.776 200.885,358.676 200.500 C 358.575 200.115,358.493 200.430,358.493 201.200 M68.787 216.800 C 68.685 218.694,68.820 220.094,69.166 220.720 C 69.324 221.006,69.384 220.106,69.298 218.720 C 69.111 215.702,68.892 214.876,68.787 216.800 M70.230 225.715 C 70.371 227.852,70.807 229.756,71.618 231.781 C 72.268 233.405,72.800 235.008,72.800 235.343 C 72.800 235.678,73.011 236.083,73.268 236.242 C 73.586 236.438,73.651 236.310,73.472 235.844 C 73.327 235.466,73.022 233.988,72.794 232.560 C 72.565 231.132,72.094 229.252,71.747 228.384 C 71.399 227.515,70.869 225.859,70.569 224.702 L 70.023 222.600 70.230 225.715 M73.827 238.500 C 74.049 240.103,75.991 245.248,77.034 247.000 C 77.296 247.440,77.732 248.520,78.001 249.400 C 79.303 253.648,86.775 267.316,89.100 269.703 C 89.815 270.437,90.400 271.234,90.400 271.474 C 90.400 272.135,93.097 275.961,95.059 278.083 C 96.017 279.118,96.800 280.137,96.800 280.346 C 96.800 280.555,98.555 282.516,100.700 284.703 C 102.845 286.890,105.500 289.665,106.600 290.869 C 107.700 292.073,109.680 293.905,111.000 294.941 C 112.320 295.977,113.940 297.327,114.600 297.942 C 117.388 300.539,127.529 307.805,127.878 307.456 C 127.974 307.360,127.366 306.773,126.526 306.152 C 125.687 305.532,124.399 304.426,123.665 303.695 C 122.930 302.965,121.400 301.840,120.265 301.196 C 119.129 300.552,117.750 299.606,117.200 299.095 C 116.650 298.584,114.761 296.914,113.001 295.383 C 111.242 293.852,109.027 291.835,108.078 290.900 C 107.129 289.965,106.219 289.200,106.055 289.200 C 105.891 289.200,104.963 288.155,103.992 286.878 C 103.021 285.601,101.109 283.666,99.743 282.578 C 98.377 281.490,97.042 280.099,96.776 279.487 C 96.510 278.875,95.822 277.759,95.246 277.007 C 92.354 273.225,91.139 271.366,88.970 267.400 C 88.609 266.740,87.555 265.210,86.628 264.000 C 85.701 262.790,84.359 260.769,83.646 259.508 C 82.934 258.248,82.196 257.121,82.007 257.004 C 81.817 256.887,81.260 255.578,80.768 254.096 C 80.277 252.613,79.340 250.410,78.687 249.200 C 78.034 247.990,77.237 246.100,76.916 245.000 C 76.595 243.900,76.090 242.620,75.793 242.156 C 75.497 241.692,74.960 240.297,74.599 239.056 C 73.820 236.376,73.500 236.145,73.827 238.500 M358.705 255.083 C 359.202 255.179,359.922 255.175,360.305 255.075 C 360.687 254.975,360.280 254.896,359.400 254.901 C 358.520 254.905,358.207 254.987,358.705 255.083 M350.922 256.250 C 350.305 256.827,350.141 257.052,350.558 256.750 C 350.975 256.447,351.785 255.990,352.358 255.732 C 353.063 255.416,353.181 255.254,352.722 255.232 C 352.350 255.215,351.540 255.672,350.922 256.250 M362.778 255.641 C 363.317 255.856,363.955 256.160,364.197 256.316 C 364.440 256.472,364.294 256.285,363.875 255.900 C 363.455 255.515,362.816 255.211,362.456 255.225 C 362.041 255.241,362.160 255.394,362.778 255.641 M369.278 266.067 C 369.235 267.534,369.096 269.064,368.970 269.467 C 368.756 270.149,368.771 270.152,369.188 269.503 C 369.448 269.099,369.578 267.666,369.497 266.103 L 369.357 263.400 369.278 266.067 M345.709 267.200 C 345.709 268.190,345.787 268.595,345.882 268.100 C 345.978 267.605,345.978 266.795,345.882 266.300 C 345.787 265.805,345.709 266.210,345.709 267.200 M366.799 274.100 C 366.210 274.904,366.113 275.184,366.545 274.833 C 367.201 274.300,368.193 272.800,367.889 272.800 C 367.813 272.800,367.322 273.385,366.799 274.100 M288.400 288.629 C 286.249 290.104,282.981 292.781,280.516 295.087 C 279.289 296.235,277.906 297.446,277.442 297.779 C 276.979 298.111,275.160 299.410,273.400 300.666 C 271.640 301.922,269.524 303.546,268.699 304.275 C 267.873 305.004,267.039 305.600,266.845 305.600 C 266.651 305.600,264.986 306.736,263.144 308.125 C 261.303 309.514,259.437 310.873,258.998 311.144 C 258.259 311.602,258.273 311.618,259.192 311.363 C 260.399 311.028,268.580 305.736,270.172 304.261 C 270.802 303.677,271.606 303.200,271.958 303.200 C 272.311 303.200,273.103 302.570,273.717 301.800 C 274.331 301.030,275.064 300.400,275.344 300.400 C 275.882 300.400,281.890 295.745,284.600 293.228 C 285.480 292.410,286.708 291.427,287.329 291.043 L 288.457 290.344 290.329 292.102 C 291.358 293.068,293.564 295.196,295.230 296.830 C 296.897 298.463,299.912 301.367,301.930 303.281 C 303.949 305.196,305.600 306.879,305.600 307.020 C 305.600 307.206,331.354 332.912,337.128 338.490 C 337.419 338.770,340.569 341.980,344.128 345.622 C 347.688 349.264,351.230 352.791,352.000 353.458 C 352.770 354.126,354.750 356.159,356.400 357.975 C 359.338 361.210,361.417 363.267,366.157 367.630 C 367.454 368.824,368.804 370.117,369.157 370.504 C 369.511 370.891,375.110 376.561,381.600 383.105 C 388.090 389.648,393.933 395.787,394.585 396.745 C 395.237 397.704,396.128 398.621,396.565 398.783 C 397.317 399.061,397.303 399.114,396.303 399.770 C 394.741 400.793,3.383 400.854,1.923 399.831 C 0.507 398.839,0.000 399.042,0.000 400.600 L 0.000 402.000 200.000 402.000 L 400.000 402.000 400.000 399.800 C 400.000 397.967,399.883 397.600,399.296 397.600 C 398.476 397.600,397.431 396.661,394.400 393.197 C 393.190 391.815,391.585 390.125,390.833 389.442 C 390.081 388.759,382.295 381.000,373.532 372.200 C 364.768 363.400,357.463 356.065,357.299 355.900 C 353.391 351.981,315.593 314.168,315.100 313.686 C 305.032 303.821,289.691 288.177,289.843 287.930 C 290.127 287.472,289.992 287.537,288.400 288.629 M131.400 309.777 C 132.331 310.570,133.971 311.413,135.323 311.796 C 136.601 312.158,137.739 312.697,137.853 312.994 C 138.238 313.998,141.037 315.509,143.425 316.004 C 144.731 316.274,147.150 317.168,148.800 317.990 C 150.450 318.811,152.340 319.609,153.000 319.761 C 153.660 319.913,154.560 320.125,155.000 320.232 C 156.597 320.618,152.564 318.672,149.869 317.755 C 148.348 317.238,146.000 316.206,144.652 315.462 C 143.303 314.719,141.302 313.774,140.203 313.364 C 139.105 312.953,136.315 311.672,134.003 310.517 C 129.986 308.509,129.871 308.476,131.400 309.777 M255.777 312.561 C 255.337 312.869,254.182 313.336,253.211 313.597 C 252.239 313.859,249.994 314.790,248.222 315.668 C 243.617 317.947,234.016 321.123,230.334 321.585 C 228.382 321.829,226.493 322.357,225.307 322.988 C 224.262 323.545,223.060 324.000,222.637 324.000 C 222.213 324.000,221.969 324.102,222.093 324.227 C 222.459 324.592,228.358 323.652,230.777 322.843 C 232.000 322.434,234.530 321.639,236.400 321.075 C 243.434 318.956,244.241 318.655,245.868 317.544 C 246.786 316.918,248.407 316.218,249.471 315.990 C 251.202 315.619,257.999 312.016,256.989 312.005 C 256.763 312.002,256.218 312.252,255.777 312.561 M156.976 321.029 C 157.404 321.343,157.963 321.600,158.221 321.600 C 158.478 321.600,160.108 322.050,161.843 322.601 C 163.577 323.151,166.469 323.785,168.270 324.009 C 170.070 324.232,172.321 324.696,173.272 325.039 C 174.222 325.383,176.890 325.833,179.200 326.041 C 181.510 326.248,184.030 326.606,184.800 326.836 C 186.885 327.459,199.988 327.723,204.800 327.240 C 213.009 326.415,218.614 325.655,219.600 325.234 C 220.419 324.885,220.203 324.843,218.400 325.005 C 199.219 326.727,179.589 326.449,174.142 324.378 C 173.549 324.153,170.530 323.529,167.432 322.993 C 164.334 322.456,160.540 321.666,159.000 321.237 C 156.943 320.664,156.406 320.609,156.976 321.029 " stroke="none" fill="#f38981" fill-rule="evenodd"></path><path id="path4" d="M197.046 18.661 C 190.812 20.468,186.677 27.919,188.804 33.513 C 194.129 47.525,213.230 43.937,211.891 29.176 C 211.617 26.147,208.569 20.800,207.117 20.800 C 206.933 20.800,206.084 20.337,205.229 19.772 C 203.667 18.738,198.976 18.101,197.046 18.661 M130.337 32.390 C 125.043 33.989,120.653 43.313,123.502 46.904 C 123.719 47.177,124.109 48.062,124.369 48.870 C 125.252 51.613,131.182 55.610,134.341 55.592 C 138.605 55.567,143.216 52.772,145.192 49.016 C 150.324 39.257,141.244 29.095,130.337 32.390 M260.561 32.411 C 253.593 34.551,251.511 45.779,256.976 51.745 C 261.885 57.105,273.033 55.866,275.581 49.677 C 275.825 49.085,276.287 48.150,276.607 47.600 C 278.732 43.946,276.099 36.014,271.857 33.293 C 270.034 32.123,263.227 31.592,260.561 32.411 M317.600 68.738 C 315.726 69.250,312.543 71.628,310.970 73.691 L 309.400 75.749 309.400 79.775 C 309.400 84.874,309.627 85.636,311.859 88.021 C 318.681 95.315,329.734 92.802,332.183 83.401 C 334.437 74.748,326.138 66.403,317.600 68.738 M354.795 124.530 C 353.582 124.788,351.962 125.468,351.195 126.041 C 350.428 126.613,349.492 127.190,349.115 127.323 C 346.443 128.262,345.005 137.440,346.952 141.133 C 351.289 149.360,364.950 149.413,368.167 141.214 C 372.097 131.195,365.008 122.351,354.795 124.530 M366.414 190.121 C 352.070 195.890,360.201 217.351,374.782 212.206 C 383.072 209.281,385.265 197.547,378.493 192.348 C 374.439 189.237,370.445 188.500,366.414 190.121 M353.291 255.423 C 348.297 257.215,346.000 260.553,346.000 266.015 C 346.000 269.805,347.627 274.102,349.510 275.285 C 350.109 275.662,351.061 276.346,351.624 276.806 C 352.952 277.891,359.028 278.383,361.407 277.598 C 370.839 274.485,372.224 260.173,363.491 256.068 C 361.121 254.953,355.576 254.603,353.291 255.423 " stroke="none" fill="#546ba9" fill-rule="evenodd"></path></g></svg>