<?xml version="1.0" standalone="no"?>
<!DOCTYPE svg PUBLIC "-//W3C//DTD SVG 20010904//EN"
 "http://www.w3.org/TR/2001/REC-SVG-20010904/DTD/svg10.dtd">
<svg version="1.0" xmlns="http://www.w3.org/2000/svg"
 width="453.000000pt" height="195.000000pt" viewBox="0 0 453.000000 195.000000"
 preserveAspectRatio="xMidYMid meet">

<g transform="translate(0.000000,195.000000) scale(0.100000,-0.100000)"
fill="#000000" stroke="none">
<path d="M10 1096 l0 -826 847 0 848 0 -30 28 c-17 16 -125 122 -242 236
l-211 208 -57 -46 c-106 -87 -213 -126 -345 -126 -353 0 -611 343 -509 676 27
86 36 105 94 182 39 51 45 65 35 77 -7 8 -106 106 -221 216 l-209 201 0 -826z"/>
<path d="M792 1818 c-34 -34 6 -90 48 -68 35 19 20 80 -20 80 -9 0 -21 -5 -28
-12z"/>
<path d="M532 1768 c-18 -18 -15 -56 6 -66 21 -11 43 -5 60 16 16 21 15 27 -4
46 -18 19 -45 21 -62 4z"/>
<path d="M1052 1768 c-34 -34 6 -90 48 -68 35 19 20 80 -20 80 -9 0 -21 -5
-28 -12z"/>
<path d="M1275 1610 c-17 -18 -17 -21 -1 -45 9 -14 21 -25 27 -25 24 0 49 22
49 43 0 46 -43 62 -75 27z"/>
<path d="M1416 1408 c-27 -38 12 -81 53 -58 27 14 28 56 2 70 -28 15 -38 13
-55 -12z"/>
<path d="M2070 1225 c-30 -9 -75 -28 -100 -43 -135 -83 -148 -257 -26 -357 24
-19 108 -69 187 -110 79 -42 155 -86 167 -98 78 -72 64 -170 -30 -218 -94 -48
-246 -32 -377 41 -30 17 -56 28 -58 26 -5 -5 35 -148 44 -157 11 -9 125 -36
188 -44 113 -14 259 27 345 96 84 68 114 193 69 286 -29 59 -82 99 -235 177
-171 86 -210 115 -225 165 -10 34 -9 44 7 77 26 53 76 76 162 76 73 0 161 -26
212 -62 l30 -21 0 79 0 80 -32 6 c-18 3 -87 8 -153 11 -91 4 -133 1 -175 -10z"/>
<path d="M2646 1193 c17 -25 20 -58 25 -353 6 -364 11 -393 75 -469 102 -119
285 -141 457 -55 37 19 70 34 73 34 2 0 4 -13 4 -30 l0 -30 95 0 96 0 -23 31
-23 31 0 403 0 403 23 31 23 31 -122 0 c-66 0 -119 -3 -117 -7 39 -77 39 -74
36 -401 -3 -359 -4 -361 -81 -407 -100 -58 -242 -52 -308 14 -53 53 -59 96
-59 425 0 277 0 283 24 329 l23 47 -120 0 -119 0 18 -27z"/>
<path d="M3653 1183 c22 -37 22 -43 22 -428 0 -385 0 -391 -22 -427 l-22 -38
100 0 100 0 -23 31 c-23 30 -23 35 -26 362 l-2 332 27 -31 c16 -16 140 -171
276 -343 252 -317 305 -371 364 -371 l23 0 0 433 c0 413 1 435 20 472 11 22
20 41 20 42 0 2 -43 3 -95 3 l-94 0 22 -37 c21 -37 22 -49 25 -345 2 -170 0
-308 -5 -308 -4 1 -129 156 -278 345 l-270 344 -92 1 -92 0 22 -37z"/>
<path d="M1476 1158 c-13 -19 -14 -25 -2 -43 26 -39 76 -26 76 19 0 46 -48 62
-74 24z"/>
<path d="M1442 908 c-28 -28 -3 -72 39 -66 30 4 47 33 33 56 -14 21 -55 27
-72 10z"/>
<path d="M237 175 c-54 -18 -68 -34 -65 -68 4 -43 44 -69 104 -70 83 -1 136
41 119 93 -13 41 -99 66 -158 45z m101 -21 c50 -35 15 -104 -54 -104 -37 0
-84 34 -84 60 0 47 91 77 138 44z"/>
<path d="M512 180 c-39 -9 -82 -46 -82 -71 0 -49 84 -87 162 -74 35 6 38 9 38
41 0 27 -4 34 -19 34 -15 0 -19 -6 -18 -27 2 -26 -1 -28 -36 -31 -51 -4 -87
19 -87 57 0 39 24 56 82 56 48 0 62 8 32 19 -18 7 -28 7 -72 -4z"/>
<path d="M815 183 c-73 -11 -72 -46 1 -78 69 -31 68 -50 -4 -50 -29 1 -52 -3
-52 -7 0 -14 69 -20 103 -9 62 21 56 55 -15 81 -57 21 -58 45 0 44 23 0 42 3
42 8 0 4 -4 8 -9 8 -5 0 -15 2 -23 3 -7 2 -26 2 -43 0z"/>
<path d="M1291 177 c-58 -16 -89 -54 -71 -88 7 -13 18 -27 24 -32 23 -15 89
-28 117 -22 45 10 34 23 -14 18 -90 -10 -134 80 -53 107 19 6 46 8 60 4 16 -4
26 -2 26 5 0 6 -4 11 -9 11 -5 0 -15 2 -23 4 -7 2 -33 -1 -57 -7z"/>
<path d="M1470 183 c-67 -13 -65 -47 5 -78 30 -14 55 -29 55 -35 0 -15 -45
-23 -88 -16 -35 6 -36 6 -17 -10 15 -11 32 -14 64 -10 88 12 98 55 19 84 -68
25 -71 48 -5 45 26 -1 47 3 47 8 0 5 -6 9 -14 9 -8 0 -20 2 -28 4 -7 2 -24 1
-38 -1z"/>
<path d="M2076 179 c-54 -13 -78 -36 -74 -73 4 -42 46 -69 107 -70 28 -1 55 5
62 11 10 10 2 11 -38 6 -46 -5 -54 -3 -77 20 -31 31 -32 38 -7 68 15 19 28 24
65 23 25 0 46 3 46 8 0 4 -4 8 -9 8 -5 0 -15 2 -23 4 -7 2 -31 0 -52 -5z"/>
<path d="M2750 178 c-47 -13 -70 -35 -70 -68 0 -81 177 -103 219 -28 36 64
-54 122 -149 96z m98 -24 c51 -35 14 -104 -56 -104 -33 0 -82 36 -82 60 0 6
11 22 25 35 28 29 79 33 113 9z"/>
<path d="M3177 175 c-54 -18 -68 -34 -65 -68 4 -43 44 -69 104 -70 83 -1 136
41 119 93 -13 41 -99 66 -158 45z m101 -21 c51 -35 14 -104 -56 -104 -33 0
-82 36 -82 60 0 6 11 22 25 35 28 29 79 33 113 9z"/>
<path d="M3452 180 c-40 -9 -82 -46 -82 -72 0 -51 107 -94 173 -69 23 9 28 16
25 38 -4 38 -34 43 -33 6 0 -25 -4 -28 -38 -31 -51 -4 -87 19 -87 57 0 39 24
56 82 56 26 0 48 3 48 6 0 6 -39 20 -50 18 -3 -1 -20 -5 -38 -9z"/>
<path d="M4322 180 c-39 -9 -82 -46 -82 -71 0 -30 34 -60 79 -70 47 -10 101
-4 101 12 0 5 -11 7 -25 3 -66 -17 -124 20 -111 71 7 28 61 49 100 39 15 -3
26 -2 26 4 0 8 -36 23 -50 21 -3 -1 -20 -5 -38 -9z"/>
<path d="M18 110 l4 -70 58 0 c32 0 62 4 65 10 4 6 -12 9 -42 7 l-48 -2 0 63
c0 55 -2 62 -20 62 -18 0 -20 -6 -17 -70z"/>
<path d="M675 110 c0 -60 3 -70 18 -70 15 0 17 10 17 70 0 60 -2 70 -17 70
-15 0 -18 -10 -18 -70z"/>
<path d="M930 170 c0 -5 13 -7 30 -3 l30 6 0 -67 c0 -56 3 -66 18 -66 15 0 17
9 17 63 0 61 1 62 27 62 14 0 30 3 34 8 4 4 -29 7 -74 7 -47 0 -82 -4 -82 -10z"/>
<path d="M1130 110 c0 -60 2 -70 18 -70 14 0 17 10 17 70 0 60 -2 70 -17 70
-15 0 -18 -10 -18 -70z"/>
<path d="M1650 170 c0 -5 13 -7 30 -3 l30 6 0 -67 c0 -56 3 -66 18 -66 14 0
17 10 17 62 0 62 1 63 27 63 14 0 30 3 34 8 4 4 -29 7 -74 7 -47 0 -82 -4 -82
-10z"/>
<path d="M1848 110 l4 -70 58 0 c32 0 62 4 65 10 4 6 -12 9 -42 7 -45 -2 -48
-1 -51 25 -3 22 1 27 25 31 l28 4 -28 2 c-23 1 -28 5 -25 24 2 18 9 22 36 22
17 0 32 3 32 7 0 5 -24 8 -52 8 l-53 0 3 -70z"/>
<path d="M2215 110 c0 -60 3 -70 18 -70 13 0 17 8 17 35 l0 35 55 0 55 0 0
-35 c0 -28 4 -35 20 -35 18 0 20 7 20 70 0 63 -2 70 -20 70 -16 0 -20 -7 -20
-30 0 -30 -1 -30 -55 -30 -54 0 -55 0 -55 30 0 22 -5 30 -17 30 -15 0 -18 -10
-18 -70z"/>
<path d="M2453 110 c-1 -54 2 -70 13 -70 10 0 14 14 14 50 0 28 3 50 6 50 3 0
31 -22 63 -50 32 -28 63 -50 69 -50 8 0 12 19 12 54 0 30 3 61 6 70 4 10 1 16
-9 16 -12 0 -17 -13 -19 -50 l-3 -51 -60 51 c-82 69 -91 67 -92 -20z"/>
<path d="M2958 110 l4 -70 58 0 c32 0 62 4 65 10 4 6 -12 9 -42 7 l-48 -2 0
63 c0 55 -2 62 -20 62 -18 0 -20 -6 -17 -70z"/>
<path d="M3615 139 c29 -32 36 -47 33 -70 -4 -23 -1 -29 14 -29 14 0 18 8 18
32 0 24 10 42 37 70 28 29 33 38 19 38 -9 0 -29 -14 -43 -31 l-26 -31 -24 31
c-14 17 -34 31 -45 31 -18 0 -16 -5 17 -41z"/>
<path d="M3918 110 c3 -57 7 -70 20 -70 14 0 17 11 17 70 0 63 -2 70 -20 70
-18 0 -20 -6 -17 -70z"/>
<path d="M4018 110 c2 -45 8 -70 15 -70 8 0 11 17 9 50 -2 27 0 50 5 50 4 0
34 -23 66 -50 80 -68 87 -66 87 20 0 49 -4 70 -12 70 -9 0 -12 -15 -10 -50 2
-27 1 -50 -3 -50 -4 0 -33 23 -65 50 -32 28 -66 50 -76 50 -17 0 -19 -7 -16
-70z"/>
<path d="M3732 36 c1 -15 7 -22 15 -19 18 7 16 43 -2 43 -9 0 -14 -9 -13 -24z"/>
<path d="M4465 51 c-6 -11 9 -23 19 -14 9 9 7 23 -3 23 -6 0 -12 -4 -16 -9z"/>
</g>
</svg>
